<svg id="visual" viewBox="0 0 960 950" width="960" height="950" xmlns="http://www.w3.org/2000/svg" xmlns:xlink="http://www.w3.org/1999/xlink" version="1.1"><rect x="0" y="0" width="960" height="950" fill="#ffefd7"></rect><path d="M0 734L22.8 734.8C45.7 735.7 91.3 737.3 137 733.7C182.7 730 228.3 721 274 707.2C319.7 693.3 365.3 674.7 411.2 690.7C457 706.7 503 757.3 548.8 784C594.7 810.7 640.3 813.3 686 804.7C731.7 796 777.3 776 823 769.8C868.7 763.7 914.3 771.3 937.2 775.2L960 779L960 951L937.2 951C914.3 951 868.7 951 823 951C777.3 951 731.7 951 686 951C640.3 951 594.7 951 548.8 951C503 951 457 951 411.2 951C365.3 951 319.7 951 274 951C228.3 951 182.7 951 137 951C91.3 951 45.7 951 22.8 951L0 951Z" fill="#fa7268"></path><path d="M0 770L22.8 764.2C45.7 758.3 91.3 746.7 137 750.2C182.7 753.7 228.3 772.3 274 787.2C319.7 802 365.3 813 411.2 818.7C457 824.3 503 824.7 548.8 812.3C594.7 800 640.3 775 686 771.2C731.7 767.3 777.3 784.7 823 795.7C868.7 806.7 914.3 811.3 937.2 813.7L960 816L960 951L937.2 951C914.3 951 868.7 951 823 951C777.3 951 731.7 951 686 951C640.3 951 594.7 951 548.8 951C503 951 457 951 411.2 951C365.3 951 319.7 951 274 951C228.3 951 182.7 951 137 951C91.3 951 45.7 951 22.8 951L0 951Z" fill="#ef5f67"></path><path d="M0 818L22.8 809.2C45.7 800.3 91.3 782.7 137 790.2C182.7 797.7 228.3 830.3 274 833.5C319.7 836.7 365.3 810.3 411.2 804.8C457 799.3 503 814.7 548.8 815.3C594.7 816 640.3 802 686 792.2C731.7 782.3 777.3 776.7 823 783.5C868.7 790.3 914.3 809.7 937.2 819.3L960 829L960 951L937.2 951C914.3 951 868.7 951 823 951C777.3 951 731.7 951 686 951C640.3 951 594.7 951 548.8 951C503 951 457 951 411.2 951C365.3 951 319.7 951 274 951C228.3 951 182.7 951 137 951C91.3 951 45.7 951 22.8 951L0 951Z" fill="#e34c67"></path><path d="M0 826L22.8 825.7C45.7 825.3 91.3 824.7 137 827.3C182.7 830 228.3 836 274 843.2C319.7 850.3 365.3 858.7 411.2 862.8C457 867 503 867 548.8 861.2C594.7 855.3 640.3 843.7 686 839.3C731.7 835 777.3 838 823 847.3C868.7 856.7 914.3 872.3 937.2 880.2L960 888L960 951L937.2 951C914.3 951 868.7 951 823 951C777.3 951 731.7 951 686 951C640.3 951 594.7 951 548.8 951C503 951 457 951 411.2 951C365.3 951 319.7 951 274 951C228.3 951 182.7 951 137 951C91.3 951 45.7 951 22.8 951L0 951Z" fill="#d53867"></path><path d="M0 854L22.8 860.8C45.7 867.7 91.3 881.3 137 886.8C182.7 892.3 228.3 889.7 274 891.5C319.7 893.3 365.3 899.7 411.2 901.2C457 902.7 503 899.3 548.8 895.2C594.7 891 640.3 886 686 880.8C731.7 875.7 777.3 870.3 823 872.3C868.7 874.3 914.3 883.7 937.2 888.3L960 893L960 951L937.2 951C914.3 951 868.7 951 823 951C777.3 951 731.7 951 686 951C640.3 951 594.7 951 548.8 951C503 951 457 951 411.2 951C365.3 951 319.7 951 274 951C228.3 951 182.7 951 137 951C91.3 951 45.7 951 22.8 951L0 951Z" fill="#c62368"></path></svg>