<svg id="visual" viewBox="0 0 900 600" width="900" height="600" xmlns="http://www.w3.org/2000/svg" xmlns:xlink="http://www.w3.org/1999/xlink" version="1.1"><rect x="0" y="0" width="900" height="600" fill="#ffefd7"></rect><path d="M0 463L21.5 463.5C43 464 86 465 128.8 462.7C171.7 460.3 214.3 454.7 257.2 446C300 437.3 343 425.7 385.8 435.8C428.7 446 471.3 478 514.2 494.8C557 511.7 600 513.3 642.8 507.8C685.7 502.3 728.3 489.7 771.2 485.7C814 481.7 857 486.3 878.5 488.7L900 491L900 601L878.5 601C857 601 814 601 771.2 601C728.3 601 685.7 601 642.8 601C600 601 557 601 514.2 601C471.3 601 428.7 601 385.8 601C343 601 300 601 257.2 601C214.3 601 171.7 601 128.8 601C86 601 43 601 21.5 601L0 601Z" fill="#fa7268"></path><path d="M0 486L21.5 482.3C43 478.7 86 471.3 128.8 473.5C171.7 475.7 214.3 487.3 257.2 496.7C300 506 343 513 385.8 516.5C428.7 520 471.3 520 514.2 512.3C557 504.7 600 489.3 642.8 487C685.7 484.7 728.3 495.3 771.2 502.2C814 509 857 512 878.5 513.5L900 515L900 601L878.5 601C857 601 814 601 771.2 601C728.3 601 685.7 601 642.8 601C600 601 557 601 514.2 601C471.3 601 428.7 601 385.8 601C343 601 300 601 257.2 601C214.3 601 171.7 601 128.8 601C86 601 43 601 21.5 601L0 601Z" fill="#ef5f67"></path><path d="M0 516L21.5 510.5C43 505 86 494 128.8 498.8C171.7 503.7 214.3 524.3 257.2 526.3C300 528.3 343 511.7 385.8 508.2C428.7 504.7 471.3 514.3 514.2 514.7C557 515 600 506 642.8 499.8C685.7 493.7 728.3 490.3 771.2 494.7C814 499 857 511 878.5 517L900 523L900 601L878.5 601C857 601 814 601 771.2 601C728.3 601 685.7 601 642.8 601C600 601 557 601 514.2 601C471.3 601 428.7 601 385.8 601C343 601 300 601 257.2 601C214.3 601 171.7 601 128.8 601C86 601 43 601 21.5 601L0 601Z" fill="#e34c67"></path><path d="M0 521L21.5 520.8C43 520.7 86 520.3 128.8 522C171.7 523.7 214.3 527.3 257.2 531.8C300 536.3 343 541.7 385.8 544.3C428.7 547 471.3 547 514.2 543.3C557 539.7 600 532.3 642.8 529.7C685.7 527 728.3 529 771.2 535C814 541 857 551 878.5 556L900 561L900 601L878.5 601C857 601 814 601 771.2 601C728.3 601 685.7 601 642.8 601C600 601 557 601 514.2 601C471.3 601 428.7 601 385.8 601C343 601 300 601 257.2 601C214.3 601 171.7 601 128.8 601C86 601 43 601 21.5 601L0 601Z" fill="#d53867"></path><path d="M0 539L21.5 543.3C43 547.7 86 556.3 128.8 559.8C171.7 563.3 214.3 561.7 257.2 562.8C300 564 343 568 385.8 569C428.7 570 471.3 568 514.2 565.3C557 562.7 600 559.3 642.8 556C685.7 552.7 728.3 549.3 771.2 550.7C814 552 857 558 878.5 561L900 564L900 601L878.5 601C857 601 814 601 771.2 601C728.3 601 685.7 601 642.8 601C600 601 557 601 514.2 601C471.3 601 428.7 601 385.8 601C343 601 300 601 257.2 601C214.3 601 171.7 601 128.8 601C86 601 43 601 21.5 601L0 601Z" fill="#c62368"></path></svg>